<svg width="12" height="13" viewBox="0 0 12 13" fill="none" xmlns="http://www.w3.org/2000/svg">
<path d="M6.669 3.3337V0H0.714535C0.318564 0 0 0.262283 0 0.588299V11.9621C0 12.2881 0.318564 12.5504 0.714535 12.5504H10.718C11.114 12.5504 11.4326 12.2881 11.4326 11.9621V3.922H7.38353C6.99054 3.922 6.669 3.65726 6.669 3.3337ZM8.57442 9.11864C8.57442 9.28042 8.41365 9.41279 8.21716 9.41279H3.21541C3.01891 9.41279 2.85814 9.28042 2.85814 9.11864V8.92254C2.85814 8.76076 3.01891 8.62839 3.21541 8.62839H8.21716C8.41365 8.62839 8.57442 8.76076 8.57442 8.92254V9.11864ZM8.57442 7.54984C8.57442 7.71162 8.41365 7.84399 8.21716 7.84399H3.21541C3.01891 7.84399 2.85814 7.71162 2.85814 7.54984V7.35374C2.85814 7.19196 3.01891 7.05959 3.21541 7.05959H8.21716C8.41365 7.05959 8.57442 7.19196 8.57442 7.35374V7.54984ZM8.57442 5.78494V5.98104C8.57442 6.14283 8.41365 6.27519 8.21716 6.27519H3.21541C3.01891 6.27519 2.85814 6.14283 2.85814 5.98104V5.78494C2.85814 5.62316 3.01891 5.49079 3.21541 5.49079H8.21716C8.41365 5.49079 8.57442 5.62316 8.57442 5.78494ZM11.4326 2.98807V3.1376H7.62171V0H7.80332C7.99387 0 8.17548 0.0612812 8.30945 0.171587L11.2242 2.57381C11.3581 2.68412 11.4326 2.83364 11.4326 2.98807Z" fill="white"/>
</svg>
